# xmcd
# 
# Track frame offsets:
#     150
#     14400
#     17079
#     37915
#     43336
#     62480
#     66698
#     88297
#     93932
#     110376
#     114397
#     130771
#     133809
#     147814
# 
# Disc length: 2012
# 
# Revision: 1
# Processed by: cddbd v1.5.2PL0 Copyright (c) Steve Scherf et al.
# Submitted via: fre:ac v1.0.17
# 
DISCID=c507da0e
DTITLE=Various Artist - Guitar Masters Vol.4
DYEAR=2002
DGENRE=Blues
TTITLE0=T-Bone Shuffle - T-Bone Walker
TTITLE1=T-Bone Shuffle - T-Bone Walker (Practice)
TTITLE2=Don't Answer The Door - B.B.King
TTITLE3=Don't Answer The Door - B.B.King (Practice)
TTITLE4=I'll Play The Blues For You - Albert King
TTITLE5=I'll Play The Blues For You - Albert King (Practice)
TTITLE6=Stone Crazy - Buddy Guy
TTITLE7=Stone Crazy - Buddy Guy (Practice)
TTITLE8=Going Down - Freddy King
TTITLE9=Going Down - Freddy King (Practice)
TTITLE10=Sweet Home Chicago - Magic Sam
TTITLE11=Sweet Home Chicago - Magic Sam (Practice)
TTITLE12=Dust My Broom - Elmore James
TTITLE13=Dust My Broom - Elmore James (Practice)
EXTD=YEAR: 2002
EXTT0=
EXTT1=
EXTT2=
EXTT3=
EXTT4=
EXTT5=
EXTT6=
EXTT7=
EXTT8=
EXTT9=
EXTT10=
EXTT11=
EXTT12=
EXTT13=
PLAYORDER=
